<svg xmlns="http://www.w3.org/2000/svg" viewBox="0 0 1200 320"><rect width="1200" height="320" fill="#2563EB"/><g transform="translate(20 0) scale(.62)"><defs><linearGradient id="g" x1="0" y1="0" x2="1" y2="1"><stop offset="0%" stop-color="#2563EB"/><stop offset="100%" stop-color="#1D4ED8"/></linearGradient></defs><path d="M115 78H292c77 0 125 39 125 100 0 39-19 68-55 84 47 15 73 49 73 96 0 70-53 116-137 116H115V78Z" fill="none" stroke="url(#g)" stroke-width="34" stroke-linejoin="round"/><path d="M272 126h18c42 0 68 18 68 51s-25 52-68 52h-18V126Z" fill="none" stroke="url(#g)" stroke-width="26"/><path d="M272 287h24c47 0 76 21 76 61 0 39-29 62-76 62h-24V287Z" fill="none" stroke="url(#g)" stroke-width="26"/><g font-family="Arial" font-size="27" font-weight="700" fill="#64748B"><text x="77" y="166">1</text><text x="77" y="220">2</text><text x="77" y="274">3</text><text x="77" y="328">4</text><text x="77" y="382">5</text></g><g stroke-linecap="round" stroke-width="18"><line x1="128" y1="156" x2="201" y2="156" stroke="#2563EB"/><line x1="128" y1="210" x2="190" y2="210" stroke="#CBD5E1"/><line x1="128" y1="264" x2="179" y2="264" stroke="#CBD5E1"/><line x1="128" y1="318" x2="168" y2="318" stroke="#CBD5E1"/><line x1="128" y1="372" x2="157" y2="372" stroke="#CBD5E1"/></g><g fill="url(#g)"><rect x="126" y="395" width="34" height="52" rx="6"/><rect x="174" y="365" width="34" height="82" rx="6"/><rect x="222" y="330" width="34" height="117" rx="6"/></g></g><text x="355" y="205" font-family="Arial,Helvetica,sans-serif" font-size="150" font-weight="800" letter-spacing="-6" fill="#FFFFFF">Baremia</text></svg>